<?xml version="1.0" standalone="no"?>
<!DOCTYPE svg PUBLIC "-//W3C//DTD SVG 20010904//EN"
 "http://www.w3.org/TR/2001/REC-SVG-20010904/DTD/svg10.dtd">
<svg version="1.0" xmlns="http://www.w3.org/2000/svg"
 width="629.000000pt" height="419.000000pt" viewBox="0 0 629.000000 419.000000"
 preserveAspectRatio="xMidYMid meet">

<g transform="translate(0.000000,419.000000) scale(0.100000,-0.100000)"
fill="#000000" stroke="none">
<path d="M5175 3123 c-28 -7 -45 -32 -45 -66 0 -21 -6 -30 -20 -34 -23 -6 -22
-28 1 -28 11 0 15 -20 17 -87 2 -68 6 -88 17 -88 11 0 15 20 17 88 2 60 7 87
16 88 29 3 32 4 32 13 0 5 -10 11 -22 13 -36 5 -32 58 5 76 15 7 25 17 22 23
-6 9 -8 10 -40 2z"/>
<path d="M3134 3105 c-10 -8 -23 -14 -29 -15 -5 0 -3 5 5 11 11 7 6 9 -20 4
-65 -12 -74 -16 -59 -27 10 -7 8 -8 -8 -3 -26 7 -89 -23 -118 -56 l-20 -23 28
18 c16 10 45 20 65 22 34 4 35 4 19 -14 -26 -29 -94 -175 -113 -240 -8 -31
-19 -68 -24 -82 -5 -14 -25 -79 -46 -145 -40 -131 -63 -167 -186 -300 l-66
-70 -25 80 c-14 44 -30 106 -37 137 -8 43 -15 56 -26 51 -8 -3 -14 -9 -14 -14
0 -6 -8 -5 -19 1 -37 19 -43 13 -39 -42 l3 -53 -42 0 c-30 0 -39 3 -32 11 6 8
4 14 -7 18 -12 5 -14 13 -10 34 4 17 3 22 -2 14 -10 -15 -21 12 -83 212 -39
127 -43 158 -14 120 14 -19 14 -19 15 1 1 19 2 19 12 -2 11 -23 28 -31 28 -13
0 6 -5 10 -11 10 -5 0 -7 5 -3 12 5 8 13 4 26 -11 24 -31 23 -24 -14 72 -58
153 -126 234 -220 262 -91 27 -165 14 -286 -50 l-71 -37 -28 26 c-96 90 -248
88 -343 -3 -18 -17 -37 -28 -43 -24 -6 3 -7 1 -3 -5 4 -6 -2 -21 -13 -34 -11
-13 -29 -34 -40 -47 -12 -13 -21 -28 -21 -33 0 -5 -6 -6 -12 -2 -7 4 -10 4 -6
0 3 -4 -8 -31 -26 -59 -17 -29 -42 -72 -54 -97 -13 -25 -32 -56 -43 -70 l-20
-25 16 32 c8 18 20 45 26 59 8 24 8 25 -6 14 -8 -7 -15 -16 -15 -20 0 -5 -15
-34 -33 -67 -42 -74 -85 -178 -133 -318 -20 -60 -47 -132 -60 -158 -12 -27
-20 -56 -17 -65 3 -12 2 -13 -4 -5 -6 9 -20 -8 -46 -56 -20 -38 -37 -71 -37
-74 0 -3 55 -6 123 -6 256 -3 397 66 475 232 30 64 42 98 23 68 -6 -9 -11 -10
-15 -2 -4 6 -2 11 4 11 12 0 44 69 36 78 -3 3 -6 0 -6 -6 0 -16 -25 -15 -39 2
-9 11 -2 34 34 107 25 52 45 96 45 98 0 2 -9 -4 -20 -14 -11 -10 -23 -15 -27
-12 -3 4 -13 1 -21 -6 -13 -10 -14 -8 -8 13 l7 25 -20 -22 c-57 -67 -17 31 51
122 101 135 272 319 290 313 6 -2 21 -31 35 -63 14 -33 29 -62 34 -63 5 -2 7
-8 4 -13 -4 -5 1 -6 9 -3 9 3 12 13 9 22 -15 42 23 -12 61 -89 41 -80 66 -108
66 -74 0 9 5 13 11 10 6 -4 8 -13 5 -21 -3 -7 -1 -16 4 -19 6 -4 10 0 11 7 0
7 16 -27 35 -77 19 -49 38 -99 43 -110 5 -11 21 -54 36 -95 29 -78 101 -224
126 -255 8 -10 30 -35 50 -56 20 -22 32 -39 25 -40 -6 -1 0 -5 14 -9 22 -7 21
-8 -12 -9 -20 -1 -40 4 -43 9 -3 6 1 10 10 10 13 0 14 2 3 14 -11 13 -15 13
-25 0 -9 -13 -15 -11 -38 12 -14 14 -24 32 -21 40 5 12 -11 19 -36 15 -4 0
-10 10 -14 23 -7 31 -82 65 -95 44 -5 -7 -9 -17 -9 -22 0 -5 -12 1 -26 15
l-27 24 24 -44 c29 -53 86 -113 131 -138 30 -16 64 -18 378 -18 395 0 392 -1
491 92 65 61 153 175 140 183 -6 3 -6 11 -2 19 5 8 14 10 22 6 9 -6 11 -3 6
10 -8 19 10 48 24 39 5 -3 7 1 4 8 -3 7 5 29 17 48 30 48 118 227 118 239 0
24 -19 9 -25 -19 -4 -16 -11 -30 -16 -30 -12 0 -11 14 2 27 8 8 7 17 -5 34
l-16 23 0 -31 c0 -19 -6 -33 -16 -37 -8 -3 -12 -10 -9 -16 3 -5 1 -10 -4 -10
-14 0 -14 5 -1 28 5 9 23 53 40 97 17 44 69 154 116 244 46 90 84 165 84 167
0 2 -58 4 -128 4 -97 0 -133 -4 -148 -15z m-2109 -531 c-13 -26 -15 -27 -15
-6 0 12 5 22 10 22 6 0 10 8 11 18 0 9 3 12 5 6 3 -6 -2 -24 -11 -40z m2185
-13 c0 -6 -4 -13 -10 -16 -5 -3 -10 1 -10 9 0 9 5 16 10 16 6 0 10 -4 10 -9z
m-813 -253 c-3 -8 -6 -5 -6 6 -1 11 2 17 5 13 3 -3 4 -12 1 -19z"/>
<path d="M4092 3107 c-14 -16 -6 -27 20 -27 13 0 18 6 16 17 -4 22 -22 27 -36
10z"/>
<path d="M3737 3103 c-4 -3 -7 -69 -7 -145 0 -116 2 -138 15 -138 12 0 15 19
15 112 0 61 3 108 8 104 4 -4 27 -53 52 -108 25 -56 50 -103 56 -105 6 -2 33
47 60 108 l49 113 3 -112 c2 -91 5 -112 17 -112 13 0 15 24 15 146 0 133 -1
145 -17 142 -18 -3 -45 -50 -96 -168 -28 -63 -29 -64 -40 -40 -91 203 -106
227 -130 203z"/>
<path d="M5260 3054 c0 -17 -6 -28 -20 -31 -11 -3 -20 -10 -20 -15 0 -5 9 -12
20 -15 18 -5 20 -14 20 -83 0 -72 1 -77 25 -88 25 -12 55 -7 55 8 0 5 -10 10
-22 12 -21 3 -23 9 -26 76 -3 73 0 80 41 73 4 0 7 6 7 14 0 9 -9 15 -25 15
-21 0 -25 5 -25 30 0 20 -5 30 -15 30 -9 0 -15 -10 -15 -26z"/>
<path d="M5399 3033 c0 -5 -2 -16 -4 -25 -2 -10 1 -20 6 -24 5 -3 9 0 9 7 0 8
4 8 13 1 9 -8 13 -3 14 19 2 23 -2 29 -17 29 -11 0 -20 -3 -21 -7z m31 -13 c0
-5 -4 -10 -10 -10 -5 0 -10 5 -10 10 0 6 5 10 10 10 6 0 10 -4 10 -10z"/>
<path d="M4234 3020 c-84 -34 -84 -172 0 -200 40 -13 86 -4 86 17 0 10 -8 12
-33 8 -49 -10 -82 20 -82 75 0 54 33 85 82 77 24 -4 33 -2 33 8 0 24 -45 32
-86 15z"/>
<path d="M4423 3015 c-13 -9 -23 -11 -23 -6 0 6 -7 11 -15 11 -12 0 -15 -18
-15 -100 0 -79 3 -100 14 -100 10 0 15 19 18 75 4 79 13 97 50 99 13 1 23 7
23 16 0 21 -26 23 -52 5z"/>
<path d="M4538 3014 c-36 -19 -48 -43 -48 -94 0 -52 13 -76 51 -96 58 -30 133
7 145 72 18 96 -66 163 -148 118z m92 -34 c43 -43 15 -140 -42 -140 -35 0 -68
38 -68 80 0 68 66 104 110 60z"/>
<path d="M4752 3018 c-24 -12 -38 -48 -29 -73 4 -8 24 -23 47 -35 26 -13 40
-27 40 -40 0 -24 -40 -36 -69 -20 -18 9 -21 8 -21 -9 0 -42 97 -35 120 9 17
31 5 52 -45 82 -25 15 -45 32 -45 37 0 19 31 33 60 27 32 -6 38 2 18 22 -15
15 -45 14 -76 0z"/>
<path d="M4930 3017 c-60 -30 -74 -126 -25 -176 49 -50 145 -24 164 44 26 96
-56 174 -139 132z m90 -37 c45 -45 14 -140 -45 -140 -38 0 -65 33 -65 80 0 47
27 80 65 80 14 0 34 -9 45 -20z"/>
<path d="M4090 2920 c0 -82 3 -100 15 -100 12 0 15 18 15 100 0 82 -3 100 -15
100 -12 0 -15 -18 -15 -100z"/>
<path d="M1102 2770 c-7 -11 -8 -20 -3 -20 9 0 24 30 18 36 -1 2 -8 -6 -15
-16z"/>
<path d="M3737 2724 c-4 -4 -7 -171 -7 -371 l0 -363 45 0 46 0 -3 305 c-2 168
0 305 4 305 4 0 13 -10 19 -22 11 -21 119 -189 306 -475 l73 -113 50 0 50 0 2
353 c2 195 2 361 0 370 -3 12 -14 17 -43 17 l-39 0 -2 -309 -3 -309 -128 202
c-71 110 -159 248 -196 306 l-67 105 -50 3 c-27 2 -53 0 -57 -4z"/>
<path d="M4490 2360 l0 -370 195 0 195 0 0 40 0 40 -155 0 -155 0 0 125 0 125
33 1 c17 0 70 0 117 -1 108 -1 120 3 120 46 l0 33 -132 3 -133 3 0 120 0 120
143 3 142 3 0 39 0 40 -185 0 -185 0 0 -370z"/>
<path d="M4960 2690 l0 -40 105 0 105 0 0 -330 0 -330 45 0 45 0 0 330 0 330
106 0 105 0 -3 38 -3 37 -252 3 -253 2 0 -40z"/>
<path d="M3265 2660 c3 -5 8 -10 11 -10 2 0 4 5 4 10 0 6 -5 10 -11 10 -5 0
-7 -4 -4 -10z"/>
<path d="M2311 2454 c0 -11 3 -14 6 -6 3 7 2 16 -1 19 -3 4 -6 -2 -5 -13z"/>
<path d="M1940 2180 c0 -5 5 -10 10 -10 6 0 10 5 10 10 0 6 -4 10 -10 10 -5 0
-10 -4 -10 -10z"/>
<path d="M2099 2163 c4 -15 12 -28 18 -30 9 -3 9 4 0 26 -14 38 -28 41 -18 4z"/>
<path d="M2145 2100 c3 -5 8 -10 11 -10 2 0 4 5 4 10 0 6 -5 10 -11 10 -5 0
-7 -4 -4 -10z"/>
<path d="M3513 2076 c-24 -21 -26 -28 -18 -51 14 -38 37 -52 71 -40 33 12 46
44 31 75 -19 37 -52 43 -84 16z"/>
<path d="M3028 2030 c2 -16 5 -30 7 -30 2 0 5 14 7 30 3 19 0 30 -7 30 -7 0
-10 -11 -7 -30z"/>
<path d="M3070 2053 c1 -5 10 -19 21 -33 20 -23 21 -24 32 -5 10 19 10 19 18
0 5 -15 7 -12 6 13 0 36 -12 43 -20 12 -3 -11 -10 -20 -17 -20 -7 0 -14 9 -17
20 -5 19 -23 29 -23 13z"/>
<path d="M700 1690 c21 -13 4749 -13 4770 0 10 6 -832 10 -2385 10 -1553 0
-2395 -4 -2385 -10z"/>
<path d="M4590 1230 c0 -162 1 -170 19 -170 11 0 22 4 26 10 4 6 15 6 31 0 42
-16 64 -12 95 19 26 26 29 36 29 91 0 55 -3 65 -29 91 -31 31 -53 35 -95 19
l-26 -10 0 60 c0 57 -1 60 -25 60 l-25 0 0 -170z m134 14 c18 -18 22 -95 6
-125 -12 -22 -59 -26 -78 -7 -16 16 -16 120 0 136 17 17 54 15 72 -4z"/>
<path d="M528 1227 c-32 -84 -58 -156 -58 -161 0 -4 12 -6 27 -4 22 2 29 10
36 41 l9 37 67 0 67 0 10 -37 c7 -32 14 -39 38 -41 21 -3 27 0 24 10 -2 7 -29
79 -59 160 -50 137 -56 148 -79 148 -23 0 -29 -12 -82 -153z m109 13 l22 -60
-49 0 -49 0 21 60 c12 33 24 60 27 60 4 0 16 -27 28 -60z"/>
<path d="M850 1369 c-41 -16 -60 -40 -60 -73 1 -45 19 -63 96 -94 53 -22 70
-34 72 -51 5 -33 -16 -51 -58 -51 -36 0 -70 23 -70 48 0 7 -11 12 -25 12 -61
0 0 -83 71 -96 45 -8 110 11 124 36 17 32 12 75 -12 98 -13 11 -48 30 -80 42
-58 21 -73 39 -63 71 12 38 98 37 110 -1 7 -21 55 -29 55 -9 0 55 -92 95 -160
68z"/>
<path d="M1070 1220 l0 -160 30 0 30 0 0 60 0 60 44 0 c106 0 161 63 125 144
-18 38 -66 56 -153 56 l-76 0 0 -160z m180 88 c13 -25 13 -31 0 -55 -14 -24
-23 -28 -68 -31 l-52 -3 0 61 0 61 52 -3 c45 -3 54 -7 68 -30z"/>
<path d="M1400 1220 l0 -160 30 0 29 0 3 109 3 110 69 -110 c56 -89 72 -109
92 -109 l24 0 0 160 0 160 -25 0 -25 0 0 -112 0 -113 -73 112 c-63 99 -75 113
-99 113 l-28 0 0 -160z"/>
<path d="M1730 1220 l0 -160 105 0 c98 0 105 1 105 20 0 18 -7 20 -75 20 l-75
0 0 55 0 55 65 0 c58 0 65 2 65 20 0 18 -7 20 -65 20 l-65 0 0 45 0 45 75 0
c68 0 75 2 75 20 0 19 -7 20 -105 20 l-105 0 0 -160z"/>
<path d="M1970 1360 c0 -17 7 -20 50 -20 l50 0 0 -140 0 -140 25 0 25 0 0 140
0 140 50 0 c43 0 50 3 50 20 0 19 -7 20 -125 20 -118 0 -125 -1 -125 -20z"/>
<path d="M2380 1190 c0 -162 2 -190 15 -190 13 0 15 28 15 190 0 162 -2 190
-15 190 -13 0 -15 -28 -15 -190z"/>
<path d="M2610 1220 l0 -160 31 0 32 0 -8 118 c-3 64 -3 113 2 109 4 -5 26
-57 48 -115 57 -149 67 -149 125 5 l45 118 3 -117 3 -118 24 0 25 0 0 161 0
160 -36 -3 -36 -3 -42 -112 c-23 -61 -44 -114 -47 -118 -4 -3 -26 49 -50 115
l-44 120 -37 0 -38 0 0 -160z"/>
<path d="M2980 1373 c0 -5 25 -75 54 -158 52 -144 55 -150 81 -150 27 0 30 6
81 149 30 82 54 153 54 158 0 5 -12 8 -27 6 -25 -3 -30 -11 -67 -126 -22 -68
-42 -117 -46 -110 -4 7 -22 64 -41 125 -33 108 -35 113 -61 113 -16 0 -28 -3
-28 -7z"/>
<path d="M3364 1364 c-47 -23 -68 -68 -68 -145 0 -47 5 -75 20 -100 25 -42 82
-65 138 -55 67 13 120 96 61 96 -14 0 -25 -6 -25 -13 0 -23 -35 -47 -68 -47
-49 0 -72 38 -72 120 0 83 23 120 74 120 32 0 66 -25 66 -48 0 -7 11 -12 25
-12 29 0 31 10 10 49 -24 48 -102 65 -161 35z"/>
<path d="M3720 1190 c0 -162 2 -190 15 -190 13 0 15 28 15 190 0 162 -2 190
-15 190 -13 0 -15 -28 -15 -190z"/>
<path d="M3945 1323 c8 -32 24 -104 37 -160 22 -99 24 -103 49 -103 25 0 28 5
54 110 16 61 31 110 34 110 4 0 19 -50 35 -111 28 -106 29 -110 54 -107 25 3
28 10 59 143 40 172 40 175 9 175 -22 0 -25 -6 -40 -87 -9 -49 -20 -101 -25
-118 l-8 -30 -11 40 c-6 22 -19 74 -30 115 -16 67 -21 75 -42 75 -22 0 -26 -9
-51 -108 -15 -60 -29 -111 -32 -113 -5 -6 -17 43 -38 159 -12 63 -14 67 -40
67 l-27 0 13 -57z"/>
<path d="M5000 1233 c-69 -185 -66 -173 -36 -173 21 0 27 7 37 40 l12 40 67 0
66 0 10 -37 c7 -32 14 -39 37 -41 34 -4 37 -17 -33 170 -51 136 -57 148 -80
148 -23 0 -29 -12 -80 -147z m103 18 c24 -68 23 -71 -28 -71 l-44 0 21 60 c12
33 25 60 28 60 3 0 13 -22 23 -49z"/>
<path d="M5260 1220 l0 -160 30 0 30 0 0 60 0 60 48 0 c69 0 115 26 126 72 21
85 -32 128 -158 128 l-76 0 0 -160z m180 88 c13 -25 13 -31 0 -55 -14 -24 -23
-28 -68 -31 l-52 -3 0 61 0 61 52 -3 c45 -3 54 -7 68 -30z"/>
<path d="M5570 1220 l0 -160 25 0 25 0 0 160 0 160 -25 0 -25 0 0 -160z"/>
<path d="M4393 1290 c-34 -14 -63 -68 -63 -117 0 -33 7 -50 29 -75 26 -29 35
-33 80 -33 39 0 56 5 73 22 20 20 20 23 4 29 -9 4 -22 2 -29 -5 -18 -18 -65
-13 -87 9 -34 34 -24 40 61 40 l81 0 -7 38 c-15 83 -72 120 -142 92z m84 -60
c12 -25 12 -25 -38 -28 -28 -2 -54 -1 -56 2 -3 3 2 17 11 31 22 34 65 31 83
-5z"/>
<path d="M1275 1100 c-8 -26 6 -43 31 -38 13 2 19 12 19 28 0 34 -40 41 -50
10z"/>
</g>
</svg>
