<?xml version="1.0" standalone="no"?>
<!DOCTYPE svg PUBLIC "-//W3C//DTD SVG 20010904//EN"
 "http://www.w3.org/TR/2001/REC-SVG-20010904/DTD/svg10.dtd">
<svg version="1.0" xmlns="http://www.w3.org/2000/svg"
 width="600.000000pt" height="300.000000pt" viewBox="0 0 600.000000 300.000000"
 preserveAspectRatio="xMidYMid meet">

<g transform="translate(0.000000,300.000000) scale(0.100000,-0.100000)"
fill="#000000" stroke="none">
<path d="M3119 2364 c-151 -151 -278 -274 -284 -274 -5 0 -88 61 -183 135
l-172 135 -70 -35 -70 -35 0 -350 0 -350 70 -35 70 -35 159 124 c88 69 169
131 180 138 20 12 40 -6 299 -264 l277 -277 170 69 170 68 0 562 0 562 -130
52 c-71 29 -148 59 -171 68 l-41 16 -274 -274z m271 -424 c0 -154 -2 -280 -6
-280 -14 0 -354 274 -351 283 3 11 338 276 350 276 4 1 7 -125 7 -279z m-795
100 l100 -100 -100 -100 c-55 -55 -103 -100 -107 -100 -5 0 -8 90 -8 200 0
110 3 200 8 200 4 0 52 -45 107 -100z"/>
<path d="M3822 1453 c11 -3 18 -17 21 -41 l4 -37 1 37 c1 25 7 38 20 41 9 3
-1 5 -23 5 -22 0 -32 -2 -23 -5z"/>
<path d="M3891 1418 c1 -40 2 -41 9 -13 l7 30 12 -30 13 -30 16 30 16 30 7
-30 c6 -27 7 -26 8 13 1 48 -10 54 -28 15 -12 -27 -13 -27 -27 -8 -8 10 -14
22 -14 27 0 4 -4 8 -10 8 -5 0 -9 -19 -9 -42z"/>
<path d="M2670 715 l0 -335 35 0 35 0 0 335 0 335 -35 0 -35 0 0 -335z"/>
<path d="M4460 915 c0 -74 -2 -135 -4 -135 -3 0 -17 11 -32 25 -52 48 -161 47
-222 -2 -57 -46 -77 -94 -80 -198 -3 -79 -1 -95 21 -135 13 -25 38 -55 55 -67
68 -45 169 -37 224 18 16 16 31 29 34 29 2 0 4 -16 4 -35 0 -33 2 -35 35 -35
l35 0 0 335 0 335 -35 0 -35 0 0 -135z m-55 -157 c85 -67 70 -262 -25 -311
-65 -34 -139 -7 -176 65 -8 15 -14 55 -14 89 0 74 26 136 67 161 40 25 114 23
148 -4z"/>
<path d="M1268 1019 c-27 -15 -24 -67 5 -78 49 -20 88 43 45 73 -26 19 -27 19
-50 5z"/>
<path d="M4646 1014 c-41 -40 6 -101 53 -68 11 8 21 24 21 34 0 22 -25 50 -45
50 -7 0 -21 -7 -29 -16z"/>
<path d="M3065 1001 c-78 -36 -113 -105 -95 -185 11 -51 37 -77 152 -151 85
-56 98 -69 109 -103 31 -105 -88 -158 -218 -97 l-53 24 0 -40 c0 -37 3 -41 38
-56 21 -10 66 -17 107 -17 126 -2 205 61 205 162 0 77 -33 117 -162 196 -87
53 -108 76 -108 122 0 88 120 131 221 78 l29 -15 0 41 c0 34 -4 42 -26 50 -43
17 -155 12 -199 -9z"/>
<path d="M660 1004 c0 -3 50 -145 112 -315 l112 -310 39 3 40 3 113 305 c62
168 113 308 114 313 0 4 -17 7 -37 7 l-38 0 -69 -198 c-38 -108 -82 -230 -96
-270 l-27 -73 -93 270 -94 271 -38 0 c-21 0 -38 -3 -38 -6z"/>
<path d="M3445 951 c-16 -6 -21 -20 -25 -62 l-5 -54 -37 -3 c-35 -3 -38 -6
-38 -33 0 -27 2 -29 40 -29 l40 0 0 -164 c0 -161 1 -165 25 -194 46 -55 155
-52 155 4 0 23 -3 25 -30 19 -21 -5 -39 -2 -55 9 -25 16 -25 18 -25 171 l0
155 55 0 c54 0 55 0 55 30 0 30 -1 30 -55 30 l-55 0 0 65 c0 68 -4 72 -45 56z"/>
<path d="M1494 826 c-45 -20 -74 -62 -74 -108 0 -64 23 -94 99 -133 81 -40
101 -58 101 -89 0 -56 -80 -80 -154 -47 l-47 20 3 -37 c3 -34 6 -38 48 -51 67
-21 144 -3 189 45 30 33 33 40 29 85 -6 61 -24 81 -105 120 -34 16 -69 37 -78
45 -21 22 -19 60 6 85 18 18 30 20 73 16 28 -2 59 -8 69 -12 26 -11 24 51 -2
65 -27 14 -120 12 -157 -4z"/>
<path d="M2300 822 c-41 -16 -45 -21 -48 -54 l-3 -36 47 24 c58 30 132 32 164
6 16 -13 23 -30 24 -57 l1 -39 -88 -13 c-48 -7 -101 -20 -118 -28 -67 -35 -90
-131 -46 -196 46 -69 157 -76 222 -15 l35 33 0 -33 c0 -32 2 -34 35 -34 l35 0
0 175 c0 198 -8 232 -62 265 -42 25 -134 26 -198 2z m190 -252 c0 -53 -23 -96
-63 -120 -38 -24 -68 -25 -106 -5 -45 23 -55 75 -22 116 13 16 37 26 87 35
107 19 104 20 104 -26z"/>
<path d="M4915 821 c-71 -32 -108 -90 -120 -187 -23 -168 112 -293 273 -255
106 26 162 105 162 231 0 110 -45 190 -123 219 -45 17 -147 13 -192 -8z m176
-57 c42 -21 69 -84 69 -159 0 -110 -51 -170 -145 -170 -94 0 -147 61 -147 169
0 114 51 176 145 176 26 0 62 -7 78 -16z"/>
<path d="M5269 801 c2 -20 6 -30 8 -23 4 9 9 10 17 3 9 -7 12 -3 11 16 0 16
-7 28 -20 33 -19 7 -20 5 -16 -29z m31 9 c0 -5 -4 -10 -10 -10 -5 0 -10 5 -10
10 0 6 5 10 10 10 6 0 10 -4 10 -10z"/>
<path d="M1260 604 l0 -225 33 3 32 3 3 223 2 222 -35 0 -35 0 0 -226z"/>
<path d="M1760 673 c0 -87 5 -174 10 -194 30 -107 172 -143 255 -64 l35 32 0
-33 c0 -32 2 -34 35 -34 l35 0 0 225 0 225 -35 0 -35 0 0 -152 c0 -135 -2
-157 -20 -186 -43 -70 -139 -80 -184 -19 -19 26 -21 44 -24 193 l-3 164 -35 0
-34 0 0 -157z"/>
<path d="M3662 658 c4 -187 12 -216 63 -256 54 -43 159 -36 205 13 30 32 36
31 35 -2 0 -24 4 -28 33 -31 l32 -3 0 225 0 226 -35 0 -35 0 0 -160 0 -159
-30 -35 c-36 -41 -76 -52 -125 -36 -59 20 -69 51 -73 233 l-4 157 -35 0 -35 0
4 -172z"/>
<path d="M4640 605 l0 -225 35 0 35 0 0 225 0 225 -35 0 -35 0 0 -225z"/>
<path d="M5240 776 c0 -2 8 -10 18 -17 15 -13 16 -12 3 4 -13 16 -21 21 -21
13z"/>
</g>
</svg>
