<svg height="42.39999633789063" version="1.1" width="106.90556457519534" xmlns="http://www.w3.org/2000/svg" xmlns:xlink="http://www.w3.org/1999/xlink" style="overflow: hidden; position: relative; left: -0.8px; top: -0.8px;" viewBox="250.7102018310547 204.80790061035154 106.90556457519534 42.39999633789063" preserveAspectRatio="xMinYMin" id="main_svg"><desc style="-webkit-tap-highlight-color: rgba(0, 0, 0, 0);">Created with Logotizer</desc><defs style="-webkit-tap-highlight-color: rgba(0, 0, 0, 0);"><linearGradient id="gradient_n5sqru2mgrit0650xbj8" x1="1.8369701987210297e-16" y1="0" x2="0" y2="1" style="-webkit-tap-highlight-color: rgba(0, 0, 0, 0);"><stop offset="52%" stop-color="#a81ed3" stop-opacity="1" style="-webkit-tap-highlight-color: rgba(0, 0, 0, 0);"></stop><stop offset="91%" stop-color="#421a4f" stop-opacity="1" style="-webkit-tap-highlight-color: rgba(0, 0, 0, 0);"></stop></linearGradient><linearGradient id="gradient_9n12qqmd75ky7b930el37g" x1="1.8369701987210297e-16" y1="0" x2="0" y2="1" style="-webkit-tap-highlight-color: rgba(0, 0, 0, 0);"><stop offset="52%" stop-color="#a81ed3" stop-opacity="1" style="-webkit-tap-highlight-color: rgba(0, 0, 0, 0);"></stop><stop offset="91%" stop-color="#421a4f" stop-opacity="1" style="-webkit-tap-highlight-color: rgba(0, 0, 0, 0);"></stop></linearGradient></defs><path fill="url(#gradient_9n12qqmd75ky7b930el37g)" stroke="none" d="M-67.94,-32.26L-52.24,-32.26Q-48.21,-32.26,-45.57,-30.62Q-42.4,-28.66,-42.4,-24.72Q-42.4,-22.27,-43.53,-20.14Q-44.66,-18,-46.39,-16.66Q-49.75,-14.16,-57.14,-14.16L-61.17,-14.16L-64.48,-0.96L-60.07,-0.96L-60.31,0L-76,0L-75.76,-0.96L-71.35,-0.96L-63.76,-31.3L-68.18,-31.3L-67.94,-32.26M-60.88,-15.07L-56.04,-15.07Q-53.92,-15.07,-52.34,-17.09Q-51.52,-18.19,-50.66,-21.41L-49.84,-24.91Q-49.46,-26.74,-49.46,-27.74Q-49.46,-29.62,-50.32,-30.48Q-51.14,-31.3,-52.77,-31.3L-56.9,-31.3L-60.88,-15.07ZM-22.82,-20.83L-27.04,-3.89Q-27.43,-2.98,-27.43,-2.16Q-27.43,-1.44,-26.85,-1.44Q-25.94,-1.44,-24.64,-3.12Q-23.11,-4.94,-21.76,-7.44L-21.09,-7.1Q-21.43,-6.48,-22.72,-4.46Q-23.73,-2.93,-25.12,-1.44Q-27.14,0.67,-29.44,0.67Q-31.08,0.67,-32.13,-0.29Q-33.33,-1.39,-33.28,-3.6L-33.43,-3.6Q-34.24,-1.82,-35.97,-0.53Q-37.6,0.67,-39.62,0.67Q-43.32,0.67,-45.43,-2.45Q-47.16,-4.99,-47.16,-7.97Q-47.16,-12.43,-43.41,-16.51Q-41.59,-18.58,-39,-20.04Q-36.4,-21.5,-34.1,-21.5Q-32.37,-21.5,-31.12,-20.64Q-29.88,-19.78,-29.83,-18.38L-29.2,-20.83L-22.82,-20.83M-32.85,-7.3L-31.46,-12.34Q-30.55,-15.7,-30.55,-17.33Q-30.55,-19.1,-31.39,-19.87Q-32.23,-20.64,-33.38,-20.64Q-35.49,-20.64,-37.08,-18.62Q-38.18,-17.18,-39.28,-13.34L-41.01,-6.96Q-41.73,-4.37,-41.73,-3.07Q-41.73,-1.63,-40.84,-0.91Q-39.96,-0.19,-39.04,-0.19Q-37.17,-0.19,-35.3,-2.26Q-33.76,-3.98,-32.85,-7.3ZM-9.76,-20.83L-13.41,-6.34Q-13.8,-4.8,-13.8,-3.84Q-13.8,-2.35,-13.05,-1.51Q-12.31,-0.67,-10.92,-0.67Q-8.37,-0.67,-5.73,-3.07Q-2.76,-5.71,-1.22,-9.17Q0.12,-12.19,0.12,-14.98L0.12,-15.41Q0.12,-15.7,0.08,-15.84L-0.07,-15.94Q-0.74,-14.83,-1.03,-14.5Q-1.89,-13.54,-3.28,-13.54Q-4.53,-13.54,-5.54,-14.52Q-6.55,-15.5,-6.55,-17.23Q-6.55,-19.06,-5.44,-20.28Q-4.34,-21.5,-2.52,-21.5Q-0.16,-21.5,0.89,-19.68Q1.85,-18.14,1.85,-15.46Q1.85,-12.29,0.34,-8.86Q-1.17,-5.42,-4.05,-2.83Q-7.84,0.67,-12.36,0.67Q-15.72,0.67,-17.73,-1.34Q-19.56,-3.17,-19.56,-5.76Q-19.56,-7.1,-19.03,-8.93L-16.15,-19.97L-20.52,-19.97L-20.28,-20.83L-9.76,-20.83ZM21.96,-7.87L22.59,-7.54Q20.24,-3.65,17.5,-1.3Q15.15,0.67,12.03,0.67Q8.48,0.67,6.17,-1.44Q3.24,-3.94,3.24,-8.02Q3.24,-11.04,5.38,-14.35Q7.52,-17.66,10.64,-19.58Q13.61,-21.5,17.07,-21.5Q19.76,-21.5,21.34,-20.21Q23.16,-18.77,23.16,-16.32Q23.16,-13.49,20.48,-11.71Q18.65,-10.56,15.29,-10.03Q14.19,-9.84,10.11,-9.26L9.48,-7.01Q8.91,-5.14,8.91,-3.89Q8.91,-2.3,9.92,-1.25Q10.92,-0.19,12.6,-0.19Q15.96,-0.19,19.08,-3.98Q19.28,-4.18,21.96,-7.87M11.45,-14.54L10.3,-10.13Q14.19,-10.03,15.77,-11.76Q16.88,-12.96,17.36,-15.17L17.69,-16.56Q17.98,-17.62,17.98,-18.43Q17.98,-20.64,16.01,-20.64Q14.76,-20.64,13.66,-19.54Q12.36,-18.24,11.45,-14.54ZM38.86,-31.58L31.95,-3.89Q31.61,-2.78,31.61,-2.3Q31.61,-1.44,32.38,-1.44Q33.2,-1.44,34.3,-2.78Q36.03,-4.85,37.42,-7.44L38.09,-7.1Q36.41,-4.22,35.31,-2.83Q33.96,-1.15,32.81,-0.34Q31.32,0.67,29.79,0.67Q27.96,0.67,27,-0.29Q25.85,-1.34,25.85,-3.36Q25.85,-4.32,26.28,-6L32.48,-30.77L26.91,-30.77L27.2,-31.58L38.86,-31.58ZM46.25,-32.26L61.95,-32.26Q65.98,-32.26,68.62,-30.62Q71.79,-28.66,71.79,-24.72Q71.79,-22.27,70.66,-20.14Q69.53,-18,67.8,-16.66Q64.44,-14.16,57.05,-14.16L53.02,-14.16L49.71,-0.96L54.12,-0.96L53.88,0L38.19,0L38.43,-0.96L42.84,-0.96L50.43,-31.3L46.01,-31.3L46.25,-32.26M53.31,-15.07L58.16,-15.07Q60.27,-15.07,61.85,-17.09Q62.67,-18.19,63.53,-21.41L64.35,-24.91Q64.73,-26.74,64.73,-27.74Q64.73,-29.62,63.87,-30.48Q63.05,-31.3,61.42,-31.3L57.29,-31.3L53.31,-15.07Z" opacity="1" fill-opacity="1" transform="matrix(0.68,0,0,0.68,302.9352,236.8079)" style="-webkit-tap-highlight-color: rgba(0, 0, 0, 0); opacity: 1; fill-opacity: 1;" stroke-width="1"></path></svg>