<svg height="41.88800136774091" version="1.1" width="106.2975941257481" xmlns="http://www.w3.org/2000/svg" xmlns:xlink="http://www.w3.org/1999/xlink" style="overflow: hidden; position: relative; left: -0.8px; top: -0.8px;" viewBox="250.71119872570017 205.2558990872477 106.2975941257481 41.88800136774091" preserveAspectRatio="xMinYMin" id="main_svg"><desc style="-webkit-tap-highlight-color: rgba(0, 0, 0, 0);">Created with Logotizer</desc><defs style="-webkit-tap-highlight-color: rgba(0, 0, 0, 0);"><linearGradient id="gradient_4ck1wvkvc0b2tt9ghox58y" x1="1.8369701987210297e-16" y1="0" x2="0" y2="1" style="-webkit-tap-highlight-color: rgba(0, 0, 0, 0);"><stop offset="52%" stop-color="#a81ed3" stop-opacity="1" style="-webkit-tap-highlight-color: rgba(0, 0, 0, 0);"></stop><stop offset="91%" stop-color="#421a4f" stop-opacity="1" style="-webkit-tap-highlight-color: rgba(0, 0, 0, 0);"></stop></linearGradient><linearGradient id="gradient_7fg5zifdhg3toh3t6yzhwl" x1="1.8369701987210297e-16" y1="0" x2="0" y2="1" style="-webkit-tap-highlight-color: rgba(0, 0, 0, 0);"><stop offset="52%" stop-color="#a81ed3" stop-opacity="1" style="-webkit-tap-highlight-color: rgba(0, 0, 0, 0);"></stop><stop offset="91%" stop-color="#421a4f" stop-opacity="1" style="-webkit-tap-highlight-color: rgba(0, 0, 0, 0);"></stop></linearGradient></defs><path fill="url(#gradient_7fg5zifdhg3toh3t6yzhwl)" stroke="none" d="M-44.46,-26.88Q-44.46,-21.36,-48.54,-17.66Q-52.62,-13.97,-60.4,-13.97Q-62.46,-13.97,-65.25,-14.78L-67.46,-4.66Q-67.55,-4.32,-67.55,-3.79Q-67.55,-2.93,-66.69,-2.83Q-66.3,-2.78,-65.92,-2.5Q-65.54,-2.21,-65.54,-1.68Q-65.54,0.29,-69.14,0.29L-74.51,0.29Q-75.66,0.29,-76.24,-0.1Q-76.82,-0.48,-76.82,-1.49Q-76.82,-2.69,-75.09,-2.93Q-74.13,-3.02,-73.74,-4.75L-68.42,-29.86Q-68.03,-31.63,-68.99,-31.63Q-70,-31.63,-70,-32.93Q-70,-34.85,-67.02,-34.85L-56.51,-34.85Q-54.59,-34.85,-53.2,-34.75Q-51.81,-34.66,-50.03,-34.2Q-48.26,-33.74,-47.15,-32.93Q-46.05,-32.11,-45.26,-30.58Q-44.46,-29.04,-44.46,-26.88M-51.28,-26.11Q-51.28,-29.18,-53.03,-30.43Q-54.78,-31.68,-58.29,-31.68Q-58.58,-31.68,-59.06,-31.68Q-60.21,-31.68,-60.64,-31.63Q-61.07,-31.58,-61.43,-31.32Q-61.79,-31.06,-61.94,-30.38L-64.34,-19.15Q-64.58,-17.9,-63.26,-17.4Q-61.94,-16.9,-59.97,-16.9Q-58,-16.9,-56.44,-17.54Q-54.88,-18.19,-53.94,-19.18Q-53.01,-20.16,-52.38,-21.43Q-51.76,-22.7,-51.52,-23.86Q-51.28,-25.01,-51.28,-26.11ZM-19.84,-21.55L-23.49,-4.8Q-23.58,-4.32,-23.58,-3.84Q-23.58,-3.17,-22.91,-2.69Q-22.24,-2.21,-22.24,-1.63Q-22.24,-0.62,-23.34,0.02Q-24.45,0.67,-26.27,0.67Q-27.52,0.67,-28.34,-0.43Q-29.15,-1.54,-28.91,-4.18Q-30.11,-2.3,-32.37,-0.82Q-34.62,0.67,-37.26,0.67Q-40.19,0.67,-41.99,-1.49Q-43.79,-3.65,-43.79,-7.3Q-43.79,-11.14,-42.45,-14.47Q-41.1,-17.81,-38.99,-19.94Q-36.88,-22.08,-34.38,-23.28Q-31.89,-24.48,-29.54,-24.48Q-27.81,-24.48,-26.37,-23.81Q-24.93,-23.14,-24.3,-22.08Q-23.34,-23.09,-22.48,-23.54Q-21.62,-24,-21.38,-24.02Q-21.14,-24.05,-20.46,-24.05Q-19.55,-24.05,-19.55,-23.11Q-19.55,-22.18,-19.84,-21.55M-26.61,-18.38Q-26.61,-21.89,-29.82,-21.89Q-33.04,-21.89,-35.3,-17.57Q-37.55,-13.25,-37.55,-7.68Q-37.55,-5.47,-36.64,-4.39Q-35.73,-3.31,-34.43,-3.31Q-32.27,-3.31,-30.59,-5.06Q-28.91,-6.82,-28.24,-9.94L-27.14,-14.93Q-26.61,-17.28,-26.61,-18.38ZM8.34,-22.42Q8.34,-22.13,8.17,-21.89Q8,-21.65,7.86,-21.53Q7.71,-21.41,7.35,-21.22Q6.99,-21.02,6.85,-20.93Q5.94,-20.3,5.02,-19.01L-6.3,-2.11Q-8.22,0.77,-9.57,0.82Q-10.1,0.82,-10.43,0.48Q-10.77,0.14,-10.86,-0.24Q-10.96,-0.62,-11.08,-1.42Q-11.2,-2.21,-11.3,-2.5L-13.55,-17.9Q-13.98,-20.93,-14.66,-20.93Q-15.81,-20.93,-15.81,-22.03Q-15.81,-23.9,-12.83,-23.9L-7.94,-23.9Q-6.83,-23.9,-6.3,-23.59Q-5.78,-23.28,-5.78,-22.42Q-5.78,-21.6,-7.07,-21.12Q-7.94,-20.78,-7.74,-18.34L-6.64,-5.95L1.52,-19.39Q1.9,-20.06,1.9,-20.59Q1.9,-20.88,1.26,-21.19Q0.61,-21.5,0.61,-22.18Q0.61,-23.9,3.39,-23.9L6.32,-23.9Q8.34,-23.9,8.34,-22.42ZM29.36,-19.58Q29.36,-16.22,26.41,-14.3Q23.46,-12.38,19.52,-11.95L14.29,-11.71Q14.05,-10.42,14.05,-9.12Q14.05,-6.43,15.13,-4.61Q16.21,-2.78,18.56,-2.78Q21.49,-2.78,23.98,-5.86Q24.9,-7.06,25.9,-7.06Q26.48,-7.06,26.82,-6.7Q27.15,-6.34,27.15,-5.86Q27.15,-5.04,26.62,-4.32Q25.14,-2.16,22.54,-0.74Q19.95,0.67,16.88,0.67Q12.51,0.67,10.23,-1.94Q7.95,-4.56,7.95,-8.93Q7.95,-15.07,12.06,-19.78Q16.16,-24.48,21.92,-24.48Q29.36,-24.48,29.36,-19.58M23.6,-18.86Q23.6,-21.7,20.86,-21.7Q18.46,-21.7,16.93,-19.49Q15.39,-17.28,14.77,-14.02Q16.54,-14.11,17.7,-14.21Q23.6,-14.74,23.6,-18.86ZM44.82,-32.45L39.01,-4.99Q39.01,-4.94,38.89,-4.37Q38.77,-3.79,38.77,-3.6Q38.77,-2.93,39.39,-2.78Q40.35,-2.59,40.35,-1.68Q40.35,0.29,37.42,0.29L32.43,0.29Q31.57,0.29,30.99,-0.17Q30.42,-0.62,30.42,-1.49Q30.42,-2.02,30.78,-2.42Q31.14,-2.83,31.9,-2.83Q32.72,-2.83,33.06,-4.46L38.62,-30.62Q39.01,-32.35,38.24,-32.35Q37.76,-32.35,37.52,-32.54Q37.28,-32.74,37.23,-32.93Q37.18,-33.12,37.18,-33.5Q37.18,-35.38,40.02,-35.38L44.05,-35.38Q45.44,-35.38,44.82,-32.45ZM77.46,-26.88Q77.46,-21.36,73.38,-17.66Q69.3,-13.97,61.52,-13.97Q59.46,-13.97,56.67,-14.78L54.46,-4.66Q54.37,-4.32,54.37,-3.79Q54.37,-2.93,55.23,-2.83Q55.62,-2.78,56,-2.5Q56.38,-2.21,56.38,-1.68Q56.38,0.29,52.78,0.29L47.41,0.29Q46.26,0.29,45.68,-0.1Q45.1,-0.48,45.1,-1.49Q45.1,-2.69,46.83,-2.93Q47.79,-3.02,48.18,-4.75L53.5,-29.86Q53.89,-31.63,52.93,-31.63Q51.92,-31.63,51.92,-32.93Q51.92,-34.85,54.9,-34.85L65.41,-34.85Q67.33,-34.85,68.72,-34.75Q70.11,-34.66,71.89,-34.2Q73.66,-33.74,74.77,-32.93Q75.87,-32.11,76.66,-30.58Q77.46,-29.04,77.46,-26.88M70.64,-26.11Q70.64,-29.18,68.89,-30.43Q67.14,-31.68,63.63,-31.68Q63.34,-31.68,62.86,-31.68Q61.71,-31.68,61.28,-31.63Q60.85,-31.58,60.49,-31.32Q60.13,-31.06,59.98,-30.38L57.58,-19.15Q57.34,-17.9,58.66,-17.4Q59.98,-16.9,61.95,-16.9Q63.92,-16.9,65.48,-17.54Q67.04,-18.19,67.98,-19.18Q68.91,-20.16,69.54,-21.43Q70.16,-22.7,70.4,-23.86Q70.64,-25.01,70.64,-26.11Z" opacity="1" fill-opacity="1" transform="matrix(0.68,0,0,0.68,302.9352,236.8079)" style="-webkit-tap-highlight-color: rgba(0, 0, 0, 0); opacity: 1; fill-opacity: 1;" stroke-width="1"></path></svg>